<?xml version="1.0" standalone="no"?>
<!DOCTYPE svg PUBLIC "-//W3C//DTD SVG 20010904//EN"
 "http://www.w3.org/TR/2001/REC-SVG-20010904/DTD/svg10.dtd">
<svg version="1.0" xmlns="http://www.w3.org/2000/svg"
 width="512.000000pt" height="512.000000pt" viewBox="0 0 512.000000 512.000000"
 preserveAspectRatio="xMidYMid meet">
<metadata>
Created by potrace 1.14, written by Peter Selinger 2001-2017
</metadata>
<g transform="translate(0.000000,512.000000) scale(0.100000,-0.100000)"
fill="#000000" stroke="none">
<path d="M960 4880 l0 -80 80 0 80 0 0 80 0 80 -80 0 -80 0 0 -80z"/>
<path d="M2378 4955 c-2 -1 -32 -6 -68 -9 -150 -16 -381 -63 -464 -95 -23 -9
-27 -15 -22 -34 15 -50 15 -51 -58 -79 l-71 -26 -30 29 c-17 16 -36 29 -42 29
-5 0 -47 -38 -92 -85 -45 -47 -102 -98 -127 -114 l-46 -28 -53 29 c-81 43
-141 59 -241 63 -116 4 -168 -7 -270 -56 -280 -133 -394 -482 -248 -756 13
-25 24 -51 24 -58 0 -16 -55 -116 -61 -110 -3 2 -42 -33 -87 -78 l-83 -83 35
-32 35 -31 -27 -74 -26 -74 -34 9 c-19 5 -38 6 -42 1 -24 -24 -90 -320 -107
-473 -14 -134 -8 -474 11 -600 54 -359 185 -700 378 -988 121 -182 311 -394
453 -507 28 -22 52 -43 55 -46 19 -22 169 -125 265 -182 252 -151 609 -278
875 -311 25 -3 68 -9 95 -13 102 -15 484 -8 600 11 216 34 438 98 618 177 50
23 93 42 95 44 2 1 -4 19 -12 38 l-15 36 35 20 c19 12 37 21 40 21 2 0 22 11
44 25 l40 25 70 -53 c47 -36 98 -63 153 -83 73 -26 95 -29 192 -28 124 1 183
17 283 78 198 120 302 354 261 584 -13 67 -67 187 -105 232 -59 70 -58 61 -12
141 23 41 42 75 43 77 1 1 16 -5 33 -15 30 -17 32 -17 46 2 26 35 138 329 162
424 30 122 44 184 49 221 3 25 8 59 11 75 18 121 22 196 19 380 -1 116 -5 217
-8 225 -3 8 -8 35 -11 60 -9 75 -16 110 -42 220 -104 440 -315 819 -634 1140
-283 285 -607 481 -990 601 -102 32 -283 74 -365 84 -27 4 -61 9 -75 12 -27 5
-446 13 -452 8z"/>
<path d="M3818 4880 l-37 -69 84 -51 c45 -27 85 -50 89 -50 7 0 86 116 86 128
0 8 -139 95 -171 107 -9 3 -26 -17 -51 -65z"/>
<path d="M397 4722 l-57 -58 83 -81 82 -82 57 58 57 57 -82 82 -83 82 -57 -58z"/>
<path d="M4161 4666 c-22 -30 -42 -59 -43 -63 -2 -5 26 -33 62 -62 103 -84
328 -317 411 -426 42 -55 108 -153 148 -217 l73 -118 67 37 c36 20 68 38 70
39 6 5 -57 112 -129 219 -126 187 -288 372 -465 529 -76 68 -137 116 -148 116
-2 0 -23 -24 -46 -54z"/>
<path d="M160 4080 l0 -80 80 0 80 0 0 80 0 80 -80 0 -80 0 0 -80z"/>
<path d="M255 1285 c-33 -19 -64 -36 -69 -38 -11 -4 26 -69 116 -204 117 -175
252 -333 419 -488 73 -68 179 -155 189 -155 8 0 87 101 92 118 2 5 -28 35 -67
66 -101 83 -239 220 -341 337 -71 81 -264 367 -264 389 0 15 -11 12 -75 -25z"/>
<path d="M1122 353 c-23 -34 -42 -66 -42 -71 0 -8 140 -95 171 -107 9 -3 26
17 51 65 l37 70 -22 13 c-12 8 -51 32 -87 54 l-66 40 -42 -64z"/>
</g>
</svg>
